<svg width="250" height="120" xmlns="http://www.w3.org/2000/svg" xml:space="preserve" version="1.1">
 <g id="Layer_1">
  <title>Layer 1</title>
  <g>
   <path d="m194.62595,55.31198c-13.62134,-0.53149 -26.57938,-3.26486 -39.7019,-3.85727c-13.57456,-0.61284 -26.92048,1.12113 -39.36029,7.1913c-3.94495,1.925 -7.25236,4.3991 -9.22031,8.67168c-1.51178,3.28222 -3.83982,6.22332 -6.03647,9.14178c-1.27014,1.68744 -2.94403,3.71805 -5.3818,2.55799c-2.33048,-1.10901 -2.11063,-3.56833 -1.69553,-5.75489c0.64386,-3.39163 1.38745,-6.76434 2.12585,-10.32385c-2.82211,-0.45047 -4.81979,0.10608 -6.00839,2.61298c-0.35428,0.74716 -0.82001,1.45434 -1.31607,2.11911c-1.58014,2.11746 -2.91836,4.63797 -6.16231,4.38125c-3.22342,-0.25503 -3.45952,-3.16293 -4.70674,-5.69162c-2.73126,2.11472 -5.49983,3.31763 -9.14911,3.45636c-5.00374,0.19022 -4.57493,-4.67932 -7.36393,-6.34756c-3.98209,2.16379 -3.03354,7.7428 -6.75442,9.83874c-2.27098,-0.95407 -0.72326,-2.85324 -1.55683,-4.21527c-3.02425,0.06855 -6.40702,5.89038 -9.02385,0.40582c-1.33805,-2.80441 -1.52864,-6.78243 1.69523,-9.88462c2.86336,2.5458 -0.55113,5.57252 1.34282,8.52076c5.82318,-2.1463 7.65462,-7.97958 11.11179,-12.70913c2.43161,4.1674 8.16189,4.8701 8.46133,10.25677c3.00421,-0.16183 3.47089,-2.41626 4.57651,-3.93661c1.07278,-1.47519 1.88258,-3.15041 3.01988,-4.56764c1.38733,-1.72883 3.27809,-2.27633 5.372,-1.32929c2.11405,0.95616 1.90045,2.4381 1.45852,4.52751c-0.56441,2.66843 -0.21026,5.54086 1.85056,8.17468c3.70492,-2.14868 5.7764,-4.89007 5.36569,-8.9387c-0.35431,-3.49225 1.07062,-6.16686 3.3226,-8.50789c1.00421,-1.04392 2.34003,-2.23941 3.92438,-1.08632c1.25287,0.91184 0.95102,2.42462 0.59592,3.7027c-0.3971,1.42924 -1.01654,2.79672 -1.63135,4.43687c1.767,1.01709 3.1127,-1.22882 5.45224,0.02091c1.32519,5.21383 -3.49054,10.3349 -2.31351,16.6116c3.07709,-1.96695 4.6406,-4.8201 5.81784,-7.51846c4.78845,-10.97544 14.60172,-14.36486 24.90747,-16.98764c20.54016,-5.22739 41.03842,-1.85808 61.53504,0.54457c14.93448,1.75067 29.61746,1.22387 43.47903,-5.46985c2.22586,-1.07488 4.32309,-2.51508 6.26254,-4.05925c2.4824,-1.97647 4.22147,-4.32874 2.20636,-7.74051c-0.9953,-1.68521 -0.89798,-3.35446 1.32376,-3.90285c2.22867,-0.55011 2.7905,0.91538 3.03913,2.84175c0.68417,5.30127 -0.98013,9.4639 -5.48462,12.47667c-13.66644,9.1406 -29.02219,10.92647 -45.37906,10.33742z" fill="#000000"/>
   <path d="m7.39115,38.08475c4.39927,-6.75582 11.36569,-10.24109 17.69897,-12.98523c5.31929,-2.30478 12.57489,-3.2833 18.79868,0.25166c4.04196,2.29573 5.85768,6.60228 4.38217,13.20101c-2.10793,9.42717 -6.3821,17.88487 -13.76224,24.35546c-4.6353,4.06406 -9.94035,6.09214 -16.61601,2.52613c-2.45154,8.79287 -5.0596,17.23452 -5.40602,26.19479c-0.02474,0.63983 0.45083,1.32291 0.35364,1.93152c-0.26435,1.65506 -0.66776,3.64459 -2.81923,3.39084c-1.9735,-0.23279 -1.80301,-2.10629 -1.51267,-3.59863c1.26738,-6.51438 2.43183,-13.05481 3.93065,-19.51688c3.03926,-13.1033 6.27368,-26.16133 9.41727,-39.2405c0.22415,-0.93257 0.3638,-1.88545 0.5572,-2.90524c-8.71493,0.93193 -14.44215,8.76161 -14.90428,19.99347c-4.11334,-1.88721 -4.23727,-6.74072 -0.11813,-13.5984m36.04077,-9.28847c-2.01558,-1.79169 -4.48369,-1.96828 -7.00786,-1.99359c-8.38499,-0.08405 -10.02937,1.22638 -11.84442,9.24916c-1.42628,6.30429 -2.88002,12.60387 -4.44716,18.87415c-0.79033,3.16213 -1.68854,6.34977 1.58981,8.55703c3.04944,2.05313 5.86622,0.21332 8.27613,-1.44127c9.34971,-6.41932 13.66046,-15.94058 15.76089,-26.67788c0.43126,-2.20462 -0.29446,-4.27419 -2.32739,-6.5676z" fill="#000000"/>
  </g>
 </g>

</svg>