<svg version="1.1" id="Layer_1" xmlns="http://www.w3.org/2000/svg" xmlns:xlink="http://www.w3.org/1999/xlink" x="0px" y="0px"
	 width="100%" viewBox="0 0 496 496" enable-background="new 0 0 496 496" xml:space="preserve">
<path fill="#000000" opacity="1.000000" stroke="none" 
	d="
M366.463440,248.643921 
	C352.842102,248.112427 339.884064,245.379059 326.761536,244.786652 
	C313.186981,244.173813 299.841064,245.907776 287.401245,251.977951 
	C283.456299,253.902954 280.148895,256.377045 278.180939,260.649628 
	C276.669159,263.931854 274.341125,266.872955 272.144470,269.791412 
	C270.874329,271.478851 269.200439,273.509460 266.762665,272.349396 
	C264.432190,271.240387 264.652039,268.781067 265.067139,266.594513 
	C265.710999,263.202881 266.454590,259.830170 267.192993,256.270660 
	C264.370880,255.820190 262.373199,256.376740 261.184601,258.883636 
	C260.830322,259.630798 260.364594,260.337982 259.868530,261.002747 
	C258.288391,263.120209 256.950165,265.640717 253.706223,265.384003 
	C250.482803,265.128967 250.246704,262.221069 248.999481,259.692383 
	C246.268219,261.807098 243.499649,263.010010 239.850372,263.148743 
	C234.846634,263.338959 235.275436,258.469421 232.486435,256.801178 
	C228.504349,258.964966 229.452896,264.543976 225.732025,266.639923 
	C223.461044,265.685852 225.008759,263.786682 224.175186,262.424652 
	C221.150940,262.493195 217.768173,268.315033 215.151337,262.830475 
	C213.813293,260.026062 213.622696,256.048035 216.846573,252.945847 
	C219.709930,255.491653 216.295441,258.518372 218.189392,261.466614 
	C224.012573,259.320312 225.844009,253.487030 229.301178,248.757477 
	C231.732788,252.924881 237.463074,253.627579 237.762512,259.014252 
	C240.766724,258.852417 241.233398,256.597992 242.339020,255.077637 
	C243.411804,253.602448 244.221603,251.927231 245.358902,250.509995 
	C246.746231,248.781174 248.636993,248.233673 250.730896,249.180710 
	C252.844955,250.136871 252.631348,251.618805 252.189423,253.708221 
	C251.625015,256.376648 251.979156,259.249084 254.039978,261.882904 
	C257.744904,259.734222 259.816376,256.992828 259.405670,252.944199 
	C259.051361,249.451950 260.476288,246.777344 262.728271,244.436310 
	C263.732483,243.392395 265.068298,242.196899 266.652649,243.349991 
	C267.905518,244.261826 267.603668,245.774612 267.248566,247.052689 
	C266.851471,248.481934 266.232025,249.849411 265.617218,251.489563 
	C267.384216,252.506653 268.729919,250.260742 271.069458,251.510468 
	C272.394653,256.724304 267.578918,261.845367 268.755951,268.122070 
	C271.833038,266.155121 273.396545,263.301971 274.573792,260.603607 
	C279.362244,249.628174 289.175507,246.238754 299.481262,243.615967 
	C320.021423,238.388580 340.519684,241.757889 361.016296,244.160538 
	C375.950775,245.911209 390.633759,245.384415 404.495331,238.690689 
	C406.721191,237.615814 408.818420,236.175613 410.757874,234.631439 
	C413.240265,232.654968 414.979340,230.302704 412.964233,226.890930 
	C411.968933,225.205719 412.066254,223.536469 414.287994,222.988083 
	C416.516663,222.437973 417.078491,223.903458 417.327118,225.829834 
	C418.011292,231.131104 416.346985,235.293732 411.842499,238.306503 
	C398.176056,247.447098 382.820312,249.232971 366.463440,248.643921 
z"/>
<path fill="#000000" opacity="1.000000" stroke="none" 
	d="
M179.228638,231.416687 
	C183.627914,224.660873 190.594330,221.175598 196.927612,218.431458 
	C202.246902,216.126678 209.502502,215.148163 215.726288,218.683121 
	C219.768250,220.978851 221.583969,225.285400 220.108459,231.884125 
	C218.000534,241.311295 213.726364,249.768997 206.346222,256.239594 
	C201.710922,260.303650 196.405869,262.331726 189.730209,258.765717 
	C187.278671,267.558594 184.670609,276.000244 184.324188,284.960510 
	C184.299454,285.600342 184.775024,286.283417 184.677826,286.892029 
	C184.413483,288.547089 184.010071,290.536621 181.858597,290.282867 
	C179.885101,290.050079 180.055588,288.176575 180.345932,286.684235 
	C181.613312,280.169861 182.777756,273.629425 184.276581,267.167358 
	C187.315842,254.064056 190.550262,241.006027 193.693848,227.926865 
	C193.917999,226.994293 194.057648,226.041412 194.251053,225.021622 
	C185.536118,225.953552 179.808899,233.783234 179.346771,245.015091 
	C175.233429,243.127884 175.109497,238.274368 179.228638,231.416687 
M215.269409,222.128220 
	C213.253830,220.336533 210.785721,220.159943 208.261551,220.134628 
	C199.876556,220.050583 198.232178,221.361008 196.417130,229.383789 
	C194.990845,235.688080 193.537109,241.987656 191.969971,248.257935 
	C191.179642,251.420074 190.281433,254.607712 193.559784,256.814972 
	C196.609222,258.868103 199.425995,257.028290 201.835907,255.373703 
	C211.185623,248.954376 215.496368,239.433121 217.596802,228.695816 
	C218.028061,226.491196 217.302338,224.421631 215.269409,222.128220 
z"/>
</svg>